<?xml version="1.0" standalone="no"?>
<!DOCTYPE svg PUBLIC "-//W3C//DTD SVG 20010904//EN"
 "http://www.w3.org/TR/2001/REC-SVG-20010904/DTD/svg10.dtd">
<svg version="1.0" xmlns="http://www.w3.org/2000/svg"
 width="512.000000pt" height="512.000000pt" viewBox="0 0 512.000000 512.000000"
 preserveAspectRatio="xMidYMid meet">
<metadata>
Created by potrace 1.11, written by Peter Selinger 2001-2013
</metadata>
<g transform="translate(0.000000,512.000000) scale(0.100000,-0.100000)"
fill="#000000" stroke="none">
<path d="M2473 4203 c-34 -23 -158 -121 -258 -205 -11 -9 -83 -67 -159 -128
-145 -116 -360 -291 -576 -465 -69 -56 -130 -105 -137 -108 -9 -6 -12 60 -12
288 -1 241 -3 301 -15 324 -56 108 -201 120 -271 21 l-30 -42 -3 -433 -3 -433
-62 -48 c-34 -26 -64 -51 -67 -54 -3 -4 -54 -45 -114 -93 -134 -107 -158 -138
-158 -205 0 -85 56 -150 138 -160 51 -5 108 20 169 74 22 19 52 44 67 55 l28
20 2 -829 3 -829 28 -36 c57 -74 -70 -69 1511 -69 1579 0 1467 -5 1522 68 l29
37 2 626 3 626 -23 40 c-63 111 -215 114 -276 4 -22 -38 -22 -44 -22 -559 l1
-520 -350 0 -350 0 1 437 c0 268 -3 448 -9 464 -12 31 -84 95 -109 97 -10 1
-199 2 -420 2 -379 1 -404 0 -440 -19 -23 -11 -47 -35 -61 -59 -22 -40 -22
-42 -22 -481 l0 -441 -80 0 c-44 0 -190 -1 -325 -1 -135 0 -256 1 -270 1 l-25
0 3 852 2 852 145 118 c80 65 152 124 160 131 22 18 166 134 230 185 30 24 73
59 95 77 304 248 588 475 595 475 5 0 94 -69 197 -153 235 -191 691 -559 1133
-915 30 -25 73 -59 95 -77 340 -279 345 -281 441 -234 57 27 87 77 87 141 -1
82 17 64 -458 447 -99 80 -185 150 -192 156 -7 5 -18 15 -25 20 -53 42 -225
181 -235 190 -7 5 -18 15 -25 20 -27 22 -224 180 -238 192 -23 19 -519 420
-565 456 -21 18 -55 46 -75 63 -81 72 -156 84 -227 37z m297 -2694 l0 -339
-210 0 -210 0 0 340 0 339 108 3 c59 2 153 2 210 0 l102 -3 0 -340z"/>
</g>
</svg>
